<svg width="800" height="600" xmlns="http://www.w3.org/2000/svg">

 <g>
  <title>Layer 1</title>
  <path stroke="#ffffff" id="svg_1" d="m796.93319,529.90681l-211.89175,-162.52139c28.54562,-36.10319 45.28644,-78.34142 45.31617,-123.63577c-0.02974,-132.1199 -139.51671,-239.1295 -311.68248,-239.17511c-172.1955,0.04561 -311.74195,107.05521 -311.74195,239.1523c0,132.02867 139.54645,239.03827 311.74195,239.03827c59.08348,0 114.15274,-12.84024 161.22328,-34.73479l211.95122,162.5442l105.08356,-80.66772zm-671.08966,-286.17996c0.17841,-81.69403 86.32076,-147.74257 192.80187,-147.92503c106.42164,0.18245 192.62346,66.231 192.80187,147.92503c-0.20815,81.64841 -86.38023,147.69696 -192.80187,147.87941c-106.48111,-0.18245 -192.62346,-66.231 -192.80187,-147.87941z" opacity="undefined" fill="#f9f9f9"/>
 </g>
</svg>