<svg width="200.00000000000003" height="100.00000000000001" xmlns="http://www.w3.org/2000/svg">
 <!-- Created with Method Draw - http://github.com/duopixel/Method-Draw/ -->

 <g>
  <title>background</title>
  <rect x="-1" y="-1" width="202" height="102" id="canvas_background" fill="#fff"/>
  <g id="canvasGrid" display="none">
   <rect id="svg_5" width="100%" height="100%" x="0" y="0" stroke-width="0" fill="url(#gridpattern)"/>
  </g>
 </g>
 <g>
  <title>Layer 1</title>
  <text fill="#000000" stroke-width="0" x="33.64338" y="34.20701" id="svg_1" font-size="24" font-family="'Times New Roman', Times, serif" text-anchor="start" xml:space="preserve" transform="matrix(1.5352868449399468,0,0,1.5132116339299702,-38.3423750260871,-14.51842862007066) " stroke="#000">TEST</text>
  <text fill="#000000" stroke-width="0" x="95.10164" y="59.79968" id="svg_2" font-size="24" font-family="'Times New Roman', Times, serif" text-anchor="start" xml:space="preserve" transform="matrix(1.202249634445252,0,0,1.2154889541591274,-3.498187249496141,1.1049435075884908) " stroke="#000">LOGO</text>
  <path stroke="#000" fill="#fff" stroke-width="1.5" d="m103.10699,28.74536l11.33174,0l3.50159,-10.91789l3.50159,10.91789l11.33174,0l-9.16756,6.74755l3.50178,10.91789l-9.16756,-6.74773l-9.16756,6.74773l3.50178,-10.91789l-9.16756,-6.74755l0.00001,0z" id="svg_3"/>
  <path stroke="#000" fill="#fff" stroke-width="1.5" d="m76.19027,53.93061l11.33174,0l3.50159,-11.93647l3.5016,11.93647l11.33174,0l-9.16755,7.37706l3.50177,11.93647l-9.16756,-7.37726l-9.16755,7.37726l3.50177,-11.93647l-9.16755,-7.37706z" id="svg_4"/>
 </g>
</svg>