<svg width="800" height="400" xmlns="http://www.w3.org/2000/svg">
 <!-- Created with Method Draw - http://github.com/duopixel/Method-Draw/ -->
 <g>
  <title>background</title>
  <rect fill="#5ce8e8" id="canvas_background" height="402" width="802" y="-1" x="-1"/>
  <g display="none" overflow="visible" y="0" x="0" height="100%" width="100%" id="canvasGrid">
   <rect fill="url(#gridpattern)" stroke-width="0" y="0" x="0" height="100%" width="100%"/>
  </g>
 </g>
 <g>
  <title>Layer 1</title>
  <rect stroke="#000" id="svg_1" height="10" width="708.33392" y="197.78668" x="52.16624" stroke-width="1.5" fill="#000000"/>
  <rect id="svg_2" height="319" width="11" y="44.11996" x="425.83376" stroke-width="1.5" stroke="#000" fill="#000000"/>
  <rect id="svg_3" height="259" width="11" y="71.78661" x="443.5004" stroke-width="1.5" stroke="#000" fill="#000000"/>
  <text stroke="#000" transform="matrix(3.935174791913781,0,0,4.377000420181,-698.1669186132999,-445.3882086737023) " xml:space="preserve" text-anchor="start" font-family="'Times New Roman', Times, serif" font-size="24" id="svg_4" y="138.03581" x="187.60017" stroke-width="0" fill="#000000">TRAVEL</text>
  <text stroke="#000" transform="matrix(3.5627328603806787,0,0,4.066451933684465,-1407.911178086317,-896.5805678089598) " xml:space="preserve" text-anchor="start" font-family="'Times New Roman', Times, serif" font-size="24" id="svg_6" y="295.01671" x="526.31198" stroke-width="0" fill="#000000">GOALS</text>
  <rect stroke="#000" id="svg_10" height="60.00035" width="9.33339" y="127.635" x="461.66705" fill-opacity="null" stroke-opacity="null" stroke-width="1.5" fill="#000000"/>
  <rect id="svg_11" height="10.66673" width="105.33395" y="180.96865" x="462.33373" fill-opacity="null" stroke-opacity="null" stroke-width="1.5" stroke="#000" fill="#000000"/>
  <path id="svg_15" d="m-63.87824,12.61074c-0.00643,0 -0.00973,-0.00646 -0.00973,-0.0142c0,-0.00646 0.00165,-0.01273 0.00643,-0.01273c0.0033,0 0.00828,0.00627 0.00993,0.01273c0.0033,0.0094 0,0.0142 -0.00663,0.0142zm1.09897,0.36854c0.01471,0 0.01801,0.00166 0.00973,0.01273c-0.00478,0.00775 -0.01471,0.0142 -0.01948,0.0142c-0.00497,0 -0.00993,-0.00646 -0.00993,-0.0142c0,-0.00794 0.00663,-0.01273 0.01968,-0.01273zm-1.02688,-0.45081c-0.01471,-0.00313 -0.01636,-0.019 0,-0.0238c0.00828,-0.00148 0.01306,0.00313 0.01306,0.01273c0,0.00793 -0.00478,0.01255 -0.01306,0.01107zm-0.18334,0.50135c0.01968,-0.00461 0.01968,-0.00793 0.01306,-0.01881c-0.00496,-0.00793 -0.00661,-0.01752 -0.0033,-0.02065c0.00165,-0.0048 0.00993,0 0.01471,0.0094c0.00663,0.01273 0.01158,0.01439 0.02464,0.00646c0.0081,-0.00479 0.01471,-0.00793 0.01471,-0.00313c0,0.00313 0.00497,0 0.0114,-0.00646c0.00993,-0.0094 0.01158,-0.03006 0.00165,-0.04113c-0.00808,-0.0094 -0.0491,-0.00627 -0.0605,0.00479c-0.00661,0.00794 -0.01158,0.00628 -0.01801,-0.00792c-0.00993,-0.02362 -0.00993,-0.02693 0.01306,-0.02841c0.01968,0 0.01968,0 0.0033,-0.00959c-0.00826,-0.00461 -0.01636,-0.0142 -0.01636,-0.02047c0,-0.01587 0.02281,-0.02527 0.03274,-0.0142c0.0033,0.00461 0.00973,0.0094 0.01636,0.0094c0.01306,0 0.07539,-0.05367 0.07539,-0.06474c0,-0.0048 0.00645,-0.00793 0.01306,-0.0048c0.0081,0.00167 0.02281,-0.00313 0.03771,-0.01107c0.02114,-0.01273 0.02114,-0.0142 0.00973,-0.03486c-0.00808,-0.0142 -0.01801,-0.019 -0.041,-0.019c-0.02611,0 -0.03274,0.00313 -0.04082,0.02214c-0.00332,0.01273 -0.01325,0.02213 -0.01968,0.02213c-0.0114,0 -0.01471,-0.01419 -0.0033,-0.02213c0.00496,-0.00313 0.00826,-0.0142 0.00826,-0.02527c0,-0.01734 -0.0033,-0.02047 -0.02464,-0.01586c-0.02133,0.00313 -0.02133,0.00166 -0.01636,-0.02214c0.0033,-0.0142 0.00808,-0.02693 0.0114,-0.02841c0.0033,-0.00166 0.00661,-0.01586 0.00661,-0.03006c0,-0.02841 0.00975,-0.0332 0.02778,-0.01273c0.00826,0.01107 0.01324,0.01273 0.01636,0.00313c0.0033,-0.00627 0.01489,-0.00775 0.03292,-0.00461c0.02446,0.00627 0.02611,0.00461 0.02281,-0.0142c-0.00165,-0.01107 -0.00332,-0.02379 -0.00497,-0.02693c0,-0.00479 -0.00808,-0.01107 -0.01783,-0.01586c-0.01968,-0.00793 -0.02464,-0.02693 -0.00663,-0.02693c0.00497,0 0.00975,-0.00313 0.00975,-0.00941c0,-0.00479 0.00993,-0.00793 0.02299,-0.00646c0.01803,0.00167 0.02776,-0.00461 0.0524,-0.03781c0.01803,-0.0238 0.03109,-0.03652 0.03274,-0.03006c0.00165,0.00793 0.00993,0.01254 0.01803,0.01254c0.01306,0 0.01471,-0.00461 0.00993,-0.02526c-0.00167,-0.0142 -0.00993,-0.03154 -0.01491,-0.03948c-0.01471,-0.01753 -0.01471,-0.038 0,-0.03173c0.01158,0.00628 0.04763,-0.01106 0.04763,-0.02213c0,-0.0048 0.00479,-0.00793 0.0114,-0.00793c0.00663,0 0.00975,0.00959 0.00975,0.02214c0,0.01586 0.0033,0.02213 0.01158,0.01752c0.00643,-0.00331 0.0114,-0.01273 0.0114,-0.01899c0,-0.019 0.0524,-0.0522 0.06546,-0.04279c0.00497,0.00314 0.00993,0 0.0116,-0.01107c0.00478,-0.02214 0.03437,-0.03948 0.04743,-0.02841c0.00663,0.00461 0.01306,0.00313 0.01473,-0.00166c0.0033,-0.00628 0.01636,-0.01107 0.03107,-0.01255c0.01471,-0.00166 0.03439,-0.00793 0.04267,-0.01439c0.03107,-0.02047 0.06215,-0.019 0.07521,0.00314c0.00828,0.01586 0.01158,0.01586 0.01158,0.00479c0,-0.0142 0.00645,-0.01586 0.04579,-0.01107c0.06233,0.00628 0.07209,0.00628 0.09507,-0.00166c0.01471,-0.00461 0.01968,-0.00313 0.01968,0.00959c0,0.00794 0.00478,0.0142 0.0114,0.0142c0.00496,0 0.00973,-0.00461 0.00973,-0.00941c0,-0.01273 0.02631,-0.01899 0.0493,-0.01273c0.01783,0.00628 0.01948,0.00793 0.01471,0.05054c-0.00165,0.02545 0,0.04279 0.00312,0.04279c0.0033,0 0.00663,-0.01107 0.00663,-0.02693c0,-0.02675 0.01801,-0.03781 0.02464,-0.01586c0.00165,0.00793 0.00643,0.00479 0.00973,-0.00774c0.00828,-0.03321 0.02631,-0.01587 0.02133,0.02047c-0.00496,0.03006 -0.00496,0.03006 0.00975,0.01899c0.00828,-0.00479 0.01471,-0.01734 0.01471,-0.02526c0,-0.00793 0.00497,-0.01735 0.01158,-0.02066c0.01305,-0.00627 0.02778,0.01752 0.02299,0.03486c-0.00165,0.00793 -0.00165,0.0142 0.00312,0.0142c0.00332,0 0.00663,-0.00461 0.00663,-0.00793c0,-0.00461 0.0081,-0.00627 0.01803,-0.00313c0.02132,0.00479 0.02444,0.01752 0.00643,0.02526c-0.00478,0.00332 -0.00975,0.01107 -0.00975,0.01753c0,0.01107 0.00332,0.01107 0.02133,0c0.02942,-0.01899 0.04247,-0.01753 0.04745,0.00313c0.0033,0.01107 0.00975,0.01587 0.01636,0.01107c0.00663,-0.00166 0.02133,0.0048 0.03274,0.01586c0.00993,0.00941 0.02464,0.01734 0.03127,0.01734c0.00975,0 0.00975,0.00794 0.00643,0.03007c-0.0033,0.0238 -0.0033,0.02693 0.00663,0.01734c0.01306,-0.01568 0.01801,-0.01421 0.02281,0.00792c0.00165,0.01107 0.01323,0.019 0.02629,0.0238c0.01471,0.00314 0.02281,0.01107 0.02281,0.02048c0,0.00959 0.00496,0.02065 0.00993,0.02693c0.01306,0.01107 0.00973,0.04427 -0.00497,0.05534c-0.00496,0.00332 -0.0114,0.00166 -0.01306,-0.00313c-0.0033,-0.0048 -0.01471,-0.0048 -0.03604,0c-0.03439,0.01106 -0.04082,0.0142 -0.03274,0.02859c0.00497,0.0094 0.06217,0.00627 0.09342,-0.0048c0.00975,-0.00479 0.01306,0 0.01306,0.02214c0,0.01586 -0.0033,0.02841 -0.00826,0.02841c-0.00332,0 -0.00645,0.00479 -0.00645,0.01273c0,0.019 0.0081,0.01734 0.02943,-0.00479c0.01139,-0.01273 0.01801,-0.01587 0.02611,-0.00793c0.00826,0.00793 0.00993,0.00793 0.00993,-0.00479c0,-0.00775 -0.00332,-0.0142 -0.00828,-0.0142c-0.00312,0 -0.00645,-0.00628 -0.00645,-0.01255c0,-0.00793 0.00479,-0.0142 0.0114,-0.0142c0.00497,0 0.01158,0.00313 0.01158,0.00775c0,0.0048 0.00645,0.01107 0.01473,0.01273c0.01139,0.0048 0.01471,0.01107 0.01306,0.03006c-0.00332,0.03634 0.0033,0.04741 0.02776,0.04114c0.01158,-0.00314 0.01801,0 0.01306,0.00627c-0.00147,0.00313 0,0.01107 0.0033,0.01438c0.01325,0.00941 0.00828,0.03154 -0.00643,0.03154c-0.01803,0 -0.02299,0.00793 -0.01323,0.02214c0.00661,0.00793 0.01158,0.0094 0.01801,0.00313c0.01491,-0.01586 0.01803,-0.00313 0.01968,0.06014c0,0.03172 0.0033,0.05699 0.00661,0.05699c0.0081,0 0.00497,0.03486 -0.00661,0.04907c-0.00645,0.00793 -0.00645,0.01567 -0.00165,0.02213c0.01158,0.0142 0,0.05534 -0.01473,0.05534c-0.01305,0 -0.03769,0.03006 -0.03769,0.04427c0,0.01735 -0.02114,0 -0.02611,-0.019c-0.00496,-0.01734 -0.00496,-0.01734 -0.00828,-0.0048c-0.00312,0.01439 0.01473,0.05866 0.02961,0.0712c0.00975,0.00959 -0.00828,0.02545 -0.02133,0.019c-0.00663,-0.00313 -0.00975,-0.01254 -0.00975,-0.02213c0,-0.02693 -0.041,-0.09481 -0.07209,-0.12026c-0.01654,-0.01255 -0.03125,-0.02675 -0.03125,-0.03154c0,-0.00959 -0.05242,-0.03948 -0.08184,-0.04907c-0.01638,-0.0048 -0.02133,-0.00313 -0.02133,0.00959c0,0.0094 -0.00312,0.01254 -0.00975,0.0094c-0.01471,-0.00627 -0.02133,0.00794 -0.00828,0.02214c0.01803,0.01734 0.01491,0.038 -0.00478,0.03006c-0.01324,-0.00479 -0.01489,-0.00313 -0.00993,0.0238c0.00165,0.01568 0.00497,0.03634 0.00497,0.04574c0,0.00959 0.0033,0.01586 0.00661,0.01586c0.0048,0 0.00645,-0.00313 0.00312,-0.00793c-0.00165,-0.0048 0.00167,-0.00941 0.00828,-0.00941c0.00497,0 0.00975,0.00628 0.00975,0.01255c0,0.00646 -0.00645,0.01273 -0.01803,0.01107c-0.00973,0 -0.01801,-0.00461 -0.01801,-0.00775c0,-0.01439 -0.04414,-0.11234 -0.0572,-0.12672c-0.01471,-0.01568 -0.00496,-0.02047 -0.12118,0.05386c-0.01801,0.01107 -0.03769,0.03486 -0.04763,0.0522c-0.0081,0.01734 -0.02115,0.03486 -0.02776,0.038c-0.00663,0.00313 -0.03109,0.02841 -0.05242,0.05534c-0.09177,0.1186 -0.07686,0.1328 -0.07043,0.375c0.02778,0.18353 0.02778,0.18353 0.02778,0.18353c-0.06548,0 -0.06548,0 -0.06548,0c-0.05405,0 -0.05405,0 -0.05405,0c0.00496,-0.16933 0.00496,-0.16933 0.00496,-0.16933c0.0033,-0.01419 0.00497,-0.04279 0.00663,-0.05865c0.00165,-0.00941 -0.04597,-0.05055 -0.04432,-0.05995c0,-0.00793 0.04928,0.0142 0.04928,0.00627c0.0081,-0.11546 0,-0.20732 -0.02133,-0.25621c-0.00496,-0.03006 -0.04597,-0.12671 -0.0524,-0.12671c-0.00165,0 -0.01324,-0.00941 -0.02464,-0.02048c-0.01968,-0.02065 -0.02776,-0.02213 -0.13756,-0.02841c-0.11788,-0.00645 -0.11788,-0.00645 -0.11788,-0.00645c-0.02794,0.02213 -0.02794,0.02213 -0.02794,0.02213c-0.01636,0.01439 -0.03274,0.0238 -0.03752,0.0238c-0.00993,0 -0.05095,0.03321 -0.06878,0.0522c-0.00165,0 -0.0033,-0.00165 -0.0033,-0.00313c-0.00165,0 -0.00165,0 -0.00165,-0.00166c-0.00165,-0.00461 -0.00332,-0.00941 -0.00663,-0.0142c0.00993,-0.00793 0.01803,-0.01273 0.02133,-0.01107c0.00496,0.00313 0.00975,0 0.00975,-0.00794c0,-0.00793 -0.00975,-0.01107 -0.03586,-0.00793c-0.03127,0.00479 -0.03936,0.00645 -0.04432,0.02526c-0.0081,0.00959 -0.00975,0.0238 -0.00496,0.03487c-0.00167,0.0142 -0.00167,0.02379 0,0.02379c0.00165,0 0.0033,-0.00313 0.00826,-0.00646c0,0.00166 0.00165,0.00332 0.00332,0.0048c-0.01638,0.00479 -0.02466,0.019 -0.02299,0.0332c-0.00828,0.00646 -0.01638,0.00959 -0.02631,0.01438c0,0 0,-0.00166 -0.00147,-0.00166c0.00645,-0.0142 0.00975,-0.03006 0.0114,-0.05386c0.00332,-0.02675 0.00165,-0.04427 -0.0033,-0.04427c-0.0033,0 -0.00663,0.00646 -0.00663,0.01586c0.00165,0.00794 -0.00147,0.01586 -0.00808,0.01734c-0.00497,0.00166 -0.00828,-0.00148 -0.00828,-0.0094c0,-0.019 -0.00643,-0.019 -0.02116,-0.00167c-0.00661,0.00646 -0.01966,0.0142 -0.03107,0.01753c-0.01491,0.00461 -0.01968,0.00148 -0.02631,-0.01586c-0.00496,-0.0142 -0.00826,-0.03007 -0.00496,-0.03634c0.00165,-0.00793 0.00165,-0.01438 -0.00478,-0.01438c-0.01803,0 -0.00497,-0.02527 0.01636,-0.03007zm0.14087,-0.36374c-0.00993,-0.00166 -0.01803,-0.00627 -0.02133,-0.01273c-0.00165,-0.00941 -0.0033,-0.00941 -0.0033,0c0,0.00646 -0.00663,0.01107 -0.01306,0.01273c-0.01158,0 -0.01158,0.00166 0.00165,0.00794c0.00808,0.00313 0.01636,0.00792 0.01801,0.00792c0.00147,0 0.00975,-0.00479 0.01803,-0.00792c0.01471,-0.00794 0.01471,-0.00794 0,-0.00794zm1.29867,0.25473c0.00312,0.00313 0.00643,-0.00167 0.00643,-0.00959c0,-0.00628 -0.0033,-0.01255 -0.00643,-0.01255c-0.00497,0 -0.00828,0.00313 -0.00828,0.00775c0,0.0048 0.0033,0.01126 0.00828,0.01439zm-0.01158,0.0142c-0.00165,-0.0048 -0.00975,-0.01107 -0.01638,-0.01107c-0.00478,0 -0.00808,0.00627 -0.00478,0.01107c0.00147,0.00479 0.0081,0.00793 0.01471,0.00793c0.00645,0 0.0081,-0.00313 0.00645,-0.00793zm-0.01471,0.0712c0.00496,0 0.01158,-0.00166 0.01158,-0.00313c0,-0.00332 -0.00663,-0.00646 -0.01158,-0.00959c-0.00645,-0.00313 -0.0114,-0.00148 -0.0114,0.00313c0,0.0048 0.00496,0.00959 0.0114,0.00959zm0.01306,-0.15033c0.00661,-0.00314 0.00993,-0.00794 0.00826,-0.01255c-0.00496,-0.01125 -0.03272,-0.01125 -0.03272,0c0,0.01255 0.00973,0.01734 0.02446,0.01255zm-0.08994,-0.11861c-0.00828,0.0048 -0.01324,0.0142 -0.01158,0.019c0.00828,0.01254 0.01803,0.0094 0.02629,-0.01107c0.0081,-0.019 0.00479,-0.02214 -0.01471,-0.00793zm-0.03127,0.24367c0.04267,0.04261 0.04432,0.04427 0.04432,0.03006c0,-0.00793 -0.0033,-0.01438 -0.00828,-0.01438c-0.00478,0 -0.01306,-0.00794 -0.01801,-0.01734c-0.00478,-0.00941 -0.01471,-0.01901 -0.02281,-0.01901c-0.01489,0 -0.01489,0.00167 0.00478,0.02066zm-0.03437,-0.07452c0.00991,0 0.01471,-0.00313 0.00826,-0.00461c-0.00496,-0.00313 -0.01306,-0.00313 -0.01801,0c-0.00497,0.00148 0,0.00461 0.00975,0.00461zm-0.04745,-0.21507c0.00496,0.00479 0.01966,0.01106 0.03272,0.0142c0.02299,0.00479 0.02464,0.00479 0.01158,-0.00793c-0.01489,-0.01568 -0.05571,-0.02047 -0.0443,-0.00627zm-0.09987,-0.26248c-0.00496,0.00461 -0.00661,0.0142 -0.00496,0.02047c0.0033,0.01273 0.01306,0.00166 0.01306,-0.01734c0,-0.00959 -0.00165,-0.01107 -0.0081,-0.00313zm0.0491,0.34161c0.01306,0.00792 0.01803,0.00792 0.02466,-0.00314c0.01306,-0.01734 0.00478,-0.02526 -0.01968,-0.0142c-0.01968,0.00775 -0.01968,0.00775 -0.00497,0.01735zm-0.03272,-0.07913c0.02464,-0.01734 0.02464,-0.01734 0.00496,-0.01734c-0.01324,0 -0.02299,0.00627 -0.02794,0.01734c-0.00312,0.01106 -0.00645,0.01734 -0.00479,0.01734c0,0 0.01306,-0.00941 0.02778,-0.01734zm-0.03604,0.25639c0.01139,0.01734 0.03107,0.01734 0.02464,-0.00166c-0.00165,-0.00628 -0.00332,-0.0142 -0.00332,-0.01587c0,-0.00148 -0.00661,-0.00148 -0.01471,0.00167c-0.01324,0.00313 -0.01324,0.00793 -0.00661,0.01586zm-0.05077,-0.06493c0.01306,0.01734 0.01968,0.01899 0.03439,0.00627c0.00975,-0.00793 0.00975,-0.00793 0,-0.0094c-0.00496,0 -0.01801,-0.00167 -0.02942,-0.0048c-0.01638,-0.00627 -0.01638,-0.00627 -0.00497,0.00793zm-0.00165,-0.17247c0.00828,0 0.01803,-0.02527 0.01306,-0.0332c-0.00643,-0.00793 -0.01966,0.00479 -0.01966,0.01899c0,0.00793 0.0033,0.0142 0.00661,0.0142zm-0.08017,0.10754c-0.00993,0.00646 -0.00828,0.00794 0.00478,0.00794c0.00828,0 0.01801,-0.00314 0.02133,-0.00794c0.00496,-0.01254 -0.0114,-0.01254 -0.02611,0zm0.00165,0.13926c0.00147,0.00167 0.00643,-0.00166 0.0114,-0.0094c0.00496,-0.00646 0.01966,-0.01439 0.03107,-0.01753c0.01471,-0.00479 0.02133,-0.01254 0.02133,-0.0238c0,-0.02674 -0.02299,-0.01881 -0.04745,0.01587c-0.00993,0.01752 -0.01801,0.03172 -0.01636,0.03486zm-0.01803,-0.07285c0.01471,-0.01734 0.01471,-0.02048 0.00312,-0.02527c-0.01306,-0.00627 -0.02279,0.00794 -0.02279,0.0332c-0.00167,0.019 -0.00167,0.019 0.01966,-0.00793zm-0.02629,-0.18667c0.00165,0.01273 0.00496,0.01107 0.01471,-0.01255c0.01158,-0.02526 0.01158,-0.02859 0.00165,-0.02859c-0.00643,0 -0.01306,0.00479 -0.01471,0.01273c-0.0033,0.00627 -0.0033,0.02066 -0.00165,0.02841zm-0.0081,-0.12967c0,0.00645 0.00312,0.02213 0.00645,0.0332c0.00496,0.02214 0.00496,0.02214 0.00993,0.00313c0.00643,-0.01899 0,-0.0474 -0.00993,-0.0474c-0.00479,0 -0.00645,0.00479 -0.00645,0.01107zm-0.11474,0.05219c-0.0081,0.01107 -0.0081,0.02214 -0.00167,0.05534c0.00332,0.0238 0.0116,0.04759 0.01638,0.0522c0.00828,0.00793 0.00993,0 0.01158,-0.04906c0,-0.05995 -0.00828,-0.07895 -0.02629,-0.05848zm0.01471,0.16768c0.00165,0.00313 0.00496,-0.00313 0.0033,-0.01255c0,-0.00959 -0.00165,-0.01107 -0.00496,-0.00479c-0.00147,0.00627 -0.00147,0.0142 0.00165,0.01734zm0.05903,-0.14867c-0.00165,0.00313 -0.00165,0.02527 0.0033,0.04906c0.00497,0.04114 0.00645,0.0428 0.0081,0.01273c0.00165,-0.04907 -0.00165,-0.07286 -0.0114,-0.06179zm-0.05572,0.4462c0.00993,-0.019 0.02629,-0.05073 0.03769,-0.06973c0.01306,-0.02047 0.02133,-0.0474 0.02464,-0.07433c0.00479,-0.04261 0.00479,-0.04261 0.00479,-0.04261c-0.01968,0.02362 -0.01968,0.02362 -0.01968,0.02362c-0.00975,0.01273 -0.01636,0.02693 -0.01636,0.03172c0,0.01255 -0.03109,0.09168 -0.04084,0.10588c-0.00496,0.00792 -0.01324,0.02545 -0.01471,0.038c-0.00828,0.03633 0.00645,0.03006 0.02446,-0.01254zm-0.11623,0.16288c0.00497,0.03154 0.00497,0.03154 0.02133,-0.03634c0.00975,-0.03652 0.02446,-0.09499 0.03439,-0.13133c0.01306,-0.04593 0.01803,-0.08392 0.01803,-0.1376c0,-0.06972 -0.00167,-0.0712 -0.01473,-0.06326c-0.0296,0.02047 -0.04597,0.07747 -0.05258,0.18814c-0.00312,0.057 -0.00645,0.114 -0.00975,0.12654c-0.00165,0.01273 0,0.03652 0.0033,0.05386zm0.00332,-0.40489c0.00643,0.01568 0.01306,0.02841 0.01306,0.02841c0.00165,0 0.00973,-0.00959 0.01636,-0.02214c0.00828,-0.01106 0.02133,-0.02379 0.02629,-0.0284c0.0195,-0.01439 0.02446,-0.05866 0.0081,-0.08872c-0.01306,-0.02693 -0.0491,-0.057 -0.05573,-0.04741c-0.0033,0.00313 -0.00808,0.03321 -0.0114,0.06806c-0.00661,0.0522 -0.00661,0.06807 0.00332,0.0902zm-0.00993,-0.36227c0.0033,0.00314 0.00661,0.00148 0.00661,-0.00331c0,-0.00628 -0.0033,-0.01255 -0.00661,-0.01568c-0.00497,-0.00332 -0.0081,-0.00166 -0.0081,0.00461c0,0.00479 0.00312,0.01107 0.0081,0.01438zm-0.53055,0.42536c0.02281,0.00167 0.02281,0.00167 0.02281,0.00167c0.02299,0 0.04597,-0.02048 0.04597,-0.038c0,-0.01107 -0.00165,-0.01107 -0.06878,0.03633zm0.00975,-0.04427c0,0.0048 0.0033,0.00959 0.00828,0.00959c0.00808,0 0.03107,-0.02841 0.02611,-0.0332c-0.00497,-0.00646 -0.03439,0.0142 -0.03439,0.02361zm0.01803,-0.10901c0.02464,0.03155 0.03604,0.03468 0.0491,0.0142c0.01324,-0.01899 0.00165,-0.03172 -0.03771,-0.03633c-0.03272,-0.0048 -0.03272,-0.0048 -0.01139,0.02213zm-0.01803,-0.08872c0,0.00331 0.01158,0.01106 0.02464,0.01752c0.0605,0.03006 0.07209,0.03006 0.07043,0.00148c0,-0.01734 -0.02464,-0.05534 -0.03439,-0.05534c-0.01158,0 -0.06068,0.03006 -0.06068,0.03634zm0.08846,0.22466c0.01801,0 0.01966,-0.00479 0.00496,-0.01254c-0.00663,-0.00167 -0.01306,0 -0.01471,0.00461c-0.00332,0.00479 0.00165,0.00793 0.00975,0.00793zm0.01306,-0.37168c-0.0114,-0.00794 -0.02613,-0.01107 -0.03274,-0.00794c-0.0114,0.00628 -0.00975,0.00794 0.00661,0.01273c0.0081,0.00314 0.02466,0.00628 0.03274,0.00776c0.00975,0 0.00975,-0.00314 -0.00661,-0.01255zm-0.00147,0.05699c0.00973,0 0.0114,-0.00166 0.00478,-0.00645c-0.00478,-0.00148 -0.0114,-0.00148 -0.01471,0.00166c-0.00165,0.00313 0.0033,0.00627 0.00993,0.00479zm0.00973,0.03634c-0.02299,0 -0.02299,0.00148 -0.00973,0.0142c0.01636,0.0142 0.02114,0.01586 0.02776,0.00627c0.0114,-0.01254 0.0033,-0.02047 -0.01803,-0.02047zm0.03274,-0.17874c-0.00663,-0.00793 -0.00828,0.00627 -0.00496,0.02361c0.00165,0.01107 0.00826,0.02066 0.01158,0.02066c0.00643,0 0.00165,-0.03486 -0.00663,-0.04427zm0.0524,0.2088c-0.0033,0.00148 0.00497,0.01107 0.01473,0.019c0.00993,0.00793 0.01801,0.01106 0.01801,0.00627c0,-0.01107 -0.02776,-0.03173 -0.03274,-0.02527zm-0.041,0.01107c-0.01471,0.01107 -0.00643,0.03948 0.01489,0.04427c0.0114,0.00313 0.02943,0.01586 0.04084,0.02841c0.00993,0.01273 0.01801,0.01753 0.01801,0.01273c0,-0.01586 -0.06546,-0.09186 -0.07374,-0.0854zm0.06713,0.13134c-0.00975,-0.02546 -0.02115,-0.038 -0.04249,-0.04593c-0.01636,-0.00627 -0.03274,-0.00959 -0.03769,-0.00792c-0.00497,0.00166 0.01471,0.02213 0.04267,0.04592c0.0524,0.04113 0.0524,0.04113 0.03751,0.00794zm0.08697,-0.24367c-0.0033,0 -0.00663,0.00627 -0.00663,0.01254c0,0.00793 0.00332,0.01273 0.00663,0.01273c0.00478,0 0.0081,-0.00479 0.0081,-0.01273c0,-0.00627 -0.00332,-0.01254 -0.0081,-0.01254zm-0.01489,0.12967c0,0.01107 0.02794,0.00313 0.03935,-0.01107c0.01636,-0.02379 0.01471,-0.03006 -0.00663,-0.03006c-0.01471,0 -0.03272,0.02214 -0.03272,0.04113zm0.04763,-0.34161c-0.00497,0.02047 -0.00828,0.03781 -0.00663,0.03948c0.00497,0.00627 0.01803,-0.04113 0.01803,-0.06014c0,-0.00793 -0.00497,0.00167 -0.0114,0.02066zm0.08514,0.31947c-0.00828,0 -0.01471,0.00314 -0.01471,0.00941c0,0.00479 0.00478,0.00794 0.00973,0.00794c0.00663,0 0.01306,-0.00314 0.01473,-0.00794c0.0033,-0.00627 -0.00167,-0.00941 -0.00975,-0.00941zm-0.01968,0.29734c0.00975,0.0286 0.02446,0.05534 0.03274,0.06179c0.00828,0.00479 0.02464,0.02693 0.03439,0.04907c0.00975,0.02213 0.01968,0.03947 0.02133,0.03947c0.00808,0 -0.00828,-0.14553 -0.01968,-0.18981c-0.00993,-0.03799 -0.01306,-0.07285 -0.0114,-0.12819c0.00147,-0.04113 0,-0.07748 -0.0033,-0.08061c-0.00165,-0.00313 -0.01306,-0.00313 -0.02299,0c-0.01803,0.00627 -0.01968,0.01107 -0.01968,0.04593c0,0.02674 -0.0033,0.04113 -0.0114,0.0474c-0.02299,0.0142 -0.02133,0.09481 0,0.15494zm-0.04745,-0.21193c-0.0033,-0.0238 -0.00661,-0.02693 -0.02464,-0.02693c-0.02133,0 -0.02133,0.00166 -0.01968,0.03486c0,0.02048 0.00332,0.04428 0.00497,0.05534c0.00165,0.01107 0.0081,0.02214 0.01471,0.0238c0.01306,0.00794 0.02776,-0.0474 0.02464,-0.08706zm-0.02464,0.15973c-0.01471,-0.019 -0.02464,-0.03947 -0.02611,-0.04427c0,-0.00627 -0.00828,-0.02213 -0.01801,-0.03633c-0.00993,-0.0142 -0.02133,-0.03173 -0.02631,-0.038c-0.01636,-0.02214 -0.01306,-0.00313 0.00497,0.04593c0.0114,0.03321 0.03107,0.06327 0.05405,0.08854c0.04249,0.04279 0.04745,0.03486 0.0114,-0.01587zm-0.02611,0.07765c0.01783,0 0.01636,-0.00166 -0.00828,-0.02693c-0.01636,-0.01586 -0.02776,-0.0332 -0.02776,-0.04113c0,-0.00627 -0.02133,-0.02859 -0.04597,-0.04906c-0.02446,-0.02066 -0.04745,-0.04113 -0.05075,-0.04741c-0.00332,-0.00793 -0.00497,-0.00793 -0.00497,0.00148c0,0.00959 -0.00808,0.01107 -0.03439,0.00627c-0.01801,-0.00313 -0.03272,-0.00313 -0.03272,-0.00147c0,0.00313 0.00661,0.02213 0.01324,0.04113c0.0114,0.03154 0.01636,0.038 0.0524,0.05054c0.02281,0.00793 0.05885,0.02693 0.08184,0.04113c0.02133,0.01439 0.04745,0.02545 0.05738,0.02545zm-0.25562,0.05368c0.00663,0 0.01638,-0.00313 0.02299,-0.00793c0.0114,-0.01106 0.00167,-0.01106 -0.01966,0c-0.00975,0.0048 -0.0114,0.00628 -0.00332,0.00793zm-0.01801,-0.03948c0.01636,-0.00645 0.06878,-0.01273 0.11641,-0.01273c0.08992,-0.00148 0.10795,-0.00627 0.07191,-0.01586c-0.0114,-0.00313 -0.03751,-0.01107 -0.05885,-0.019c-0.03769,-0.0142 -0.11475,-0.00941 -0.12284,0.00645c-0.00167,0.00314 -0.00993,0.0048 -0.01803,0.00314c-0.01636,-0.0048 -0.03274,0.00793 -0.03769,0.0332c-0.00663,0.02047 0.00496,0.02214 0.0491,0.00479zm-0.13094,0.03634c0.0033,0.01273 0.01968,0.0142 0.03274,0.00313c0.00808,-0.00627 0.00808,-0.0094 0,-0.01899c-0.00663,-0.00941 -0.0114,-0.00941 -0.02133,-0.00148c-0.00663,0.00461 -0.0114,0.01254 -0.0114,0.01734zm-0.0524,0.11067c0.00643,0 0.00973,0.00479 0.00643,0.0142c-0.00147,0.00646 -0.00643,0.01273 -0.00975,0.01273c-0.00496,0 -0.00808,-0.00627 -0.00808,-0.01273c0,-0.00775 0.00478,-0.0142 0.0114,-0.0142z" fill-opacity="null" stroke-opacity="null" stroke-width="1.5" stroke="#000000" fill="#000"/>
  <path id="svg_16" d="m-120.92525,53.73765c-0.00643,0 -0.00973,-0.00646 -0.00973,-0.0142c0,-0.00646 0.00165,-0.01273 0.00643,-0.01273c0.0033,0 0.00828,0.00627 0.00993,0.01273c0.0033,0.0094 0,0.0142 -0.00663,0.0142zm1.09897,0.36854c0.01471,0 0.01801,0.00166 0.00973,0.01273c-0.00478,0.00775 -0.01471,0.0142 -0.01948,0.0142c-0.00497,0 -0.00993,-0.00646 -0.00993,-0.0142c0,-0.00794 0.00663,-0.01273 0.01968,-0.01273zm-1.02688,-0.45081c-0.01471,-0.00313 -0.01636,-0.019 0,-0.0238c0.00828,-0.00148 0.01306,0.00313 0.01306,0.01273c0,0.00793 -0.00478,0.01255 -0.01306,0.01107zm-0.18334,0.50135c0.01968,-0.00461 0.01968,-0.00793 0.01306,-0.01881c-0.00496,-0.00793 -0.00661,-0.01752 -0.0033,-0.02065c0.00165,-0.0048 0.00993,0 0.01471,0.0094c0.00663,0.01273 0.01158,0.01439 0.02464,0.00646c0.0081,-0.00479 0.01471,-0.00793 0.01471,-0.00313c0,0.00313 0.00497,0 0.0114,-0.00646c0.00993,-0.0094 0.01158,-0.03006 0.00165,-0.04113c-0.00808,-0.0094 -0.0491,-0.00627 -0.0605,0.00479c-0.00661,0.00794 -0.01158,0.00628 -0.01801,-0.00792c-0.00993,-0.02362 -0.00993,-0.02693 0.01306,-0.02841c0.01968,0 0.01968,0 0.0033,-0.00959c-0.00826,-0.00461 -0.01636,-0.0142 -0.01636,-0.02047c0,-0.01587 0.02281,-0.02527 0.03274,-0.0142c0.0033,0.00461 0.00973,0.0094 0.01636,0.0094c0.01306,0 0.07539,-0.05367 0.07539,-0.06474c0,-0.0048 0.00645,-0.00793 0.01306,-0.0048c0.0081,0.00167 0.02281,-0.00313 0.03771,-0.01107c0.02114,-0.01273 0.02114,-0.0142 0.00973,-0.03486c-0.00808,-0.0142 -0.01801,-0.019 -0.041,-0.019c-0.02611,0 -0.03274,0.00313 -0.04082,0.02214c-0.00332,0.01273 -0.01325,0.02213 -0.01968,0.02213c-0.0114,0 -0.01471,-0.01419 -0.0033,-0.02213c0.00496,-0.00313 0.00826,-0.0142 0.00826,-0.02527c0,-0.01734 -0.0033,-0.02047 -0.02464,-0.01586c-0.02133,0.00313 -0.02133,0.00166 -0.01636,-0.02214c0.0033,-0.0142 0.00808,-0.02693 0.0114,-0.02841c0.0033,-0.00166 0.00661,-0.01586 0.00661,-0.03006c0,-0.02841 0.00975,-0.0332 0.02778,-0.01273c0.00826,0.01107 0.01324,0.01273 0.01636,0.00313c0.0033,-0.00627 0.01489,-0.00775 0.03292,-0.00461c0.02446,0.00627 0.02611,0.00461 0.02281,-0.0142c-0.00165,-0.01107 -0.00332,-0.02379 -0.00497,-0.02693c0,-0.00479 -0.00808,-0.01107 -0.01783,-0.01586c-0.01968,-0.00793 -0.02464,-0.02693 -0.00663,-0.02693c0.00497,0 0.00975,-0.00313 0.00975,-0.00941c0,-0.00479 0.00993,-0.00793 0.02299,-0.00646c0.01803,0.00167 0.02776,-0.00461 0.0524,-0.03781c0.01803,-0.0238 0.03109,-0.03652 0.03274,-0.03006c0.00165,0.00793 0.00993,0.01254 0.01803,0.01254c0.01306,0 0.01471,-0.00461 0.00993,-0.02526c-0.00167,-0.0142 -0.00993,-0.03154 -0.01491,-0.03948c-0.01471,-0.01753 -0.01471,-0.038 0,-0.03173c0.01158,0.00628 0.04763,-0.01106 0.04763,-0.02213c0,-0.0048 0.00479,-0.00793 0.0114,-0.00793c0.00663,0 0.00975,0.00959 0.00975,0.02214c0,0.01586 0.0033,0.02213 0.01158,0.01752c0.00643,-0.00331 0.0114,-0.01273 0.0114,-0.01899c0,-0.019 0.0524,-0.0522 0.06546,-0.04279c0.00497,0.00314 0.00993,0 0.0116,-0.01107c0.00478,-0.02214 0.03437,-0.03948 0.04743,-0.02841c0.00663,0.00461 0.01306,0.00313 0.01473,-0.00166c0.0033,-0.00628 0.01636,-0.01107 0.03107,-0.01255c0.01471,-0.00166 0.03439,-0.00793 0.04267,-0.01439c0.03107,-0.02047 0.06215,-0.019 0.07521,0.00314c0.00828,0.01586 0.01158,0.01586 0.01158,0.00479c0,-0.0142 0.00645,-0.01586 0.04579,-0.01107c0.06233,0.00628 0.07209,0.00628 0.09507,-0.00166c0.01471,-0.00461 0.01968,-0.00313 0.01968,0.00959c0,0.00794 0.00478,0.0142 0.0114,0.0142c0.00496,0 0.00973,-0.00461 0.00973,-0.00941c0,-0.01273 0.02631,-0.01899 0.0493,-0.01273c0.01783,0.00628 0.01948,0.00793 0.01471,0.05054c-0.00165,0.02545 0,0.04279 0.00312,0.04279c0.0033,0 0.00663,-0.01107 0.00663,-0.02693c0,-0.02675 0.01801,-0.03781 0.02464,-0.01586c0.00165,0.00793 0.00643,0.00479 0.00973,-0.00774c0.00828,-0.03321 0.02631,-0.01587 0.02133,0.02047c-0.00496,0.03006 -0.00496,0.03006 0.00975,0.01899c0.00828,-0.00479 0.01471,-0.01734 0.01471,-0.02526c0,-0.00793 0.00497,-0.01735 0.01158,-0.02066c0.01305,-0.00627 0.02778,0.01752 0.02299,0.03486c-0.00165,0.00793 -0.00165,0.0142 0.00312,0.0142c0.00332,0 0.00663,-0.00461 0.00663,-0.00793c0,-0.00461 0.0081,-0.00627 0.01803,-0.00313c0.02132,0.00479 0.02444,0.01752 0.00643,0.02526c-0.00478,0.00332 -0.00975,0.01107 -0.00975,0.01753c0,0.01107 0.00332,0.01107 0.02133,0c0.02942,-0.01899 0.04247,-0.01753 0.04745,0.00313c0.0033,0.01107 0.00975,0.01587 0.01636,0.01107c0.00663,-0.00166 0.02133,0.0048 0.03274,0.01586c0.00993,0.00941 0.02464,0.01734 0.03127,0.01734c0.00975,0 0.00975,0.00794 0.00643,0.03007c-0.0033,0.0238 -0.0033,0.02693 0.00663,0.01734c0.01306,-0.01568 0.01801,-0.01421 0.02281,0.00792c0.00165,0.01107 0.01323,0.019 0.02629,0.0238c0.01471,0.00314 0.02281,0.01107 0.02281,0.02048c0,0.00959 0.00496,0.02065 0.00993,0.02693c0.01306,0.01107 0.00973,0.04427 -0.00497,0.05534c-0.00496,0.00332 -0.0114,0.00166 -0.01306,-0.00313c-0.0033,-0.0048 -0.01471,-0.0048 -0.03604,0c-0.03439,0.01106 -0.04082,0.0142 -0.03274,0.02859c0.00497,0.0094 0.06217,0.00627 0.09342,-0.0048c0.00975,-0.00479 0.01306,0 0.01306,0.02214c0,0.01586 -0.0033,0.02841 -0.00826,0.02841c-0.00332,0 -0.00645,0.00479 -0.00645,0.01273c0,0.019 0.0081,0.01734 0.02943,-0.00479c0.01139,-0.01273 0.01801,-0.01587 0.02611,-0.00793c0.00826,0.00793 0.00993,0.00793 0.00993,-0.00479c0,-0.00775 -0.00332,-0.0142 -0.00828,-0.0142c-0.00312,0 -0.00645,-0.00628 -0.00645,-0.01255c0,-0.00793 0.00479,-0.0142 0.0114,-0.0142c0.00497,0 0.01158,0.00313 0.01158,0.00775c0,0.0048 0.00645,0.01107 0.01473,0.01273c0.01139,0.0048 0.01471,0.01107 0.01306,0.03006c-0.00332,0.03634 0.0033,0.04741 0.02776,0.04114c0.01158,-0.00314 0.01801,0 0.01306,0.00627c-0.00147,0.00313 0,0.01107 0.0033,0.01438c0.01325,0.00941 0.00828,0.03154 -0.00643,0.03154c-0.01803,0 -0.02299,0.00793 -0.01323,0.02214c0.00661,0.00793 0.01158,0.0094 0.01801,0.00313c0.01491,-0.01586 0.01803,-0.00313 0.01968,0.06014c0,0.03172 0.0033,0.05699 0.00661,0.05699c0.0081,0 0.00497,0.03486 -0.00661,0.04907c-0.00645,0.00793 -0.00645,0.01567 -0.00165,0.02213c0.01158,0.0142 0,0.05534 -0.01473,0.05534c-0.01305,0 -0.03769,0.03006 -0.03769,0.04427c0,0.01735 -0.02114,0 -0.02611,-0.019c-0.00496,-0.01734 -0.00496,-0.01734 -0.00828,-0.0048c-0.00312,0.01439 0.01473,0.05866 0.02961,0.0712c0.00975,0.00959 -0.00828,0.02545 -0.02133,0.019c-0.00663,-0.00313 -0.00975,-0.01254 -0.00975,-0.02213c0,-0.02693 -0.041,-0.09481 -0.07209,-0.12026c-0.01654,-0.01255 -0.03125,-0.02675 -0.03125,-0.03154c0,-0.00959 -0.05242,-0.03948 -0.08184,-0.04907c-0.01638,-0.0048 -0.02133,-0.00313 -0.02133,0.00959c0,0.0094 -0.00312,0.01254 -0.00975,0.0094c-0.01471,-0.00627 -0.02133,0.00794 -0.00828,0.02214c0.01803,0.01734 0.01491,0.038 -0.00478,0.03006c-0.01324,-0.00479 -0.01489,-0.00313 -0.00993,0.0238c0.00165,0.01568 0.00497,0.03634 0.00497,0.04574c0,0.00959 0.0033,0.01586 0.00661,0.01586c0.0048,0 0.00645,-0.00313 0.00312,-0.00793c-0.00165,-0.0048 0.00167,-0.00941 0.00828,-0.00941c0.00497,0 0.00975,0.00628 0.00975,0.01255c0,0.00646 -0.00645,0.01273 -0.01803,0.01107c-0.00973,0 -0.01801,-0.00461 -0.01801,-0.00775c0,-0.01439 -0.04414,-0.11234 -0.0572,-0.12672c-0.01471,-0.01568 -0.00496,-0.02047 -0.12118,0.05386c-0.01801,0.01107 -0.03769,0.03486 -0.04763,0.0522c-0.0081,0.01734 -0.02115,0.03486 -0.02776,0.038c-0.00663,0.00313 -0.03109,0.02841 -0.05242,0.05534c-0.09177,0.1186 -0.07686,0.1328 -0.07043,0.375c0.02778,0.18353 0.02778,0.18353 0.02778,0.18353c-0.06548,0 -0.06548,0 -0.06548,0c-0.05405,0 -0.05405,0 -0.05405,0c0.00496,-0.16933 0.00496,-0.16933 0.00496,-0.16933c0.0033,-0.01419 0.00497,-0.04279 0.00663,-0.05865c0.00165,-0.00941 -0.04597,-0.05055 -0.04432,-0.05995c0,-0.00793 0.04928,0.0142 0.04928,0.00627c0.0081,-0.11546 0,-0.20732 -0.02133,-0.25621c-0.00496,-0.03006 -0.04597,-0.12671 -0.0524,-0.12671c-0.00165,0 -0.01324,-0.00941 -0.02464,-0.02048c-0.01968,-0.02065 -0.02776,-0.02213 -0.13756,-0.02841c-0.11788,-0.00645 -0.11788,-0.00645 -0.11788,-0.00645c-0.02794,0.02213 -0.02794,0.02213 -0.02794,0.02213c-0.01636,0.01439 -0.03274,0.0238 -0.03752,0.0238c-0.00993,0 -0.05095,0.03321 -0.06878,0.0522c-0.00165,0 -0.0033,-0.00165 -0.0033,-0.00313c-0.00165,0 -0.00165,0 -0.00165,-0.00166c-0.00165,-0.00461 -0.00332,-0.00941 -0.00663,-0.0142c0.00993,-0.00793 0.01803,-0.01273 0.02133,-0.01107c0.00496,0.00313 0.00975,0 0.00975,-0.00794c0,-0.00793 -0.00975,-0.01107 -0.03586,-0.00793c-0.03127,0.00479 -0.03936,0.00645 -0.04432,0.02526c-0.0081,0.00959 -0.00975,0.0238 -0.00496,0.03487c-0.00167,0.0142 -0.00167,0.02379 0,0.02379c0.00165,0 0.0033,-0.00313 0.00826,-0.00646c0,0.00166 0.00165,0.00332 0.00332,0.0048c-0.01638,0.00479 -0.02466,0.019 -0.02299,0.0332c-0.00828,0.00646 -0.01638,0.00959 -0.02631,0.01438c0,0 0,-0.00166 -0.00147,-0.00166c0.00645,-0.0142 0.00975,-0.03006 0.0114,-0.05386c0.00332,-0.02675 0.00165,-0.04427 -0.0033,-0.04427c-0.0033,0 -0.00663,0.00646 -0.00663,0.01586c0.00165,0.00794 -0.00147,0.01586 -0.00808,0.01734c-0.00497,0.00166 -0.00828,-0.00148 -0.00828,-0.0094c0,-0.019 -0.00643,-0.019 -0.02116,-0.00167c-0.00661,0.00646 -0.01966,0.0142 -0.03107,0.01753c-0.01491,0.00461 -0.01968,0.00148 -0.02631,-0.01586c-0.00496,-0.0142 -0.00826,-0.03007 -0.00496,-0.03634c0.00165,-0.00793 0.00165,-0.01438 -0.00478,-0.01438c-0.01803,0 -0.00497,-0.02527 0.01636,-0.03007zm0.14087,-0.36374c-0.00993,-0.00166 -0.01803,-0.00627 -0.02133,-0.01273c-0.00165,-0.00941 -0.0033,-0.00941 -0.0033,0c0,0.00646 -0.00663,0.01107 -0.01306,0.01273c-0.01158,0 -0.01158,0.00166 0.00165,0.00794c0.00808,0.00313 0.01636,0.00792 0.01801,0.00792c0.00147,0 0.00975,-0.00479 0.01803,-0.00792c0.01471,-0.00794 0.01471,-0.00794 0,-0.00794zm1.29867,0.25473c0.00312,0.00313 0.00643,-0.00167 0.00643,-0.00959c0,-0.00628 -0.0033,-0.01255 -0.00643,-0.01255c-0.00497,0 -0.00828,0.00313 -0.00828,0.00775c0,0.0048 0.0033,0.01126 0.00828,0.01439zm-0.01158,0.0142c-0.00165,-0.0048 -0.00975,-0.01107 -0.01638,-0.01107c-0.00478,0 -0.00808,0.00627 -0.00478,0.01107c0.00147,0.00479 0.0081,0.00793 0.01471,0.00793c0.00645,0 0.0081,-0.00313 0.00645,-0.00793zm-0.01471,0.0712c0.00496,0 0.01158,-0.00166 0.01158,-0.00313c0,-0.00332 -0.00663,-0.00646 -0.01158,-0.00959c-0.00645,-0.00313 -0.0114,-0.00148 -0.0114,0.00313c0,0.0048 0.00496,0.00959 0.0114,0.00959zm0.01306,-0.15033c0.00661,-0.00314 0.00993,-0.00794 0.00826,-0.01255c-0.00496,-0.01125 -0.03272,-0.01125 -0.03272,0c0,0.01255 0.00973,0.01734 0.02446,0.01255zm-0.08994,-0.11861c-0.00828,0.0048 -0.01324,0.0142 -0.01158,0.019c0.00828,0.01254 0.01803,0.0094 0.02629,-0.01107c0.0081,-0.019 0.00479,-0.02214 -0.01471,-0.00793zm-0.03127,0.24367c0.04267,0.04261 0.04432,0.04427 0.04432,0.03006c0,-0.00793 -0.0033,-0.01438 -0.00828,-0.01438c-0.00478,0 -0.01306,-0.00794 -0.01801,-0.01734c-0.00478,-0.00941 -0.01471,-0.01901 -0.02281,-0.01901c-0.01489,0 -0.01489,0.00167 0.00478,0.02066zm-0.03437,-0.07452c0.00991,0 0.01471,-0.00313 0.00826,-0.00461c-0.00496,-0.00313 -0.01306,-0.00313 -0.01801,0c-0.00497,0.00148 0,0.00461 0.00975,0.00461zm-0.04745,-0.21507c0.00496,0.00479 0.01966,0.01106 0.03272,0.0142c0.02299,0.00479 0.02464,0.00479 0.01158,-0.00793c-0.01489,-0.01568 -0.05571,-0.02047 -0.0443,-0.00627zm-0.09987,-0.26248c-0.00496,0.00461 -0.00661,0.0142 -0.00496,0.02047c0.0033,0.01273 0.01306,0.00166 0.01306,-0.01734c0,-0.00959 -0.00165,-0.01107 -0.0081,-0.00313zm0.0491,0.34161c0.01306,0.00792 0.01803,0.00792 0.02466,-0.00314c0.01306,-0.01734 0.00478,-0.02526 -0.01968,-0.0142c-0.01968,0.00775 -0.01968,0.00775 -0.00497,0.01735zm-0.03272,-0.07913c0.02464,-0.01734 0.02464,-0.01734 0.00496,-0.01734c-0.01324,0 -0.02299,0.00627 -0.02794,0.01734c-0.00312,0.01106 -0.00645,0.01734 -0.00479,0.01734c0,0 0.01306,-0.00941 0.02778,-0.01734zm-0.03604,0.25639c0.01139,0.01734 0.03107,0.01734 0.02464,-0.00166c-0.00165,-0.00628 -0.00332,-0.0142 -0.00332,-0.01587c0,-0.00148 -0.00661,-0.00148 -0.01471,0.00167c-0.01324,0.00313 -0.01324,0.00793 -0.00661,0.01586zm-0.05077,-0.06493c0.01306,0.01734 0.01968,0.01899 0.03439,0.00627c0.00975,-0.00793 0.00975,-0.00793 0,-0.0094c-0.00496,0 -0.01801,-0.00167 -0.02942,-0.0048c-0.01638,-0.00627 -0.01638,-0.00627 -0.00497,0.00793zm-0.00165,-0.17247c0.00828,0 0.01803,-0.02527 0.01306,-0.0332c-0.00643,-0.00793 -0.01966,0.00479 -0.01966,0.01899c0,0.00793 0.0033,0.0142 0.00661,0.0142zm-0.08017,0.10754c-0.00993,0.00646 -0.00828,0.00794 0.00478,0.00794c0.00828,0 0.01801,-0.00314 0.02133,-0.00794c0.00496,-0.01254 -0.0114,-0.01254 -0.02611,0zm0.00165,0.13926c0.00147,0.00167 0.00643,-0.00166 0.0114,-0.0094c0.00496,-0.00646 0.01966,-0.01439 0.03107,-0.01753c0.01471,-0.00479 0.02133,-0.01254 0.02133,-0.0238c0,-0.02674 -0.02299,-0.01881 -0.04745,0.01587c-0.00993,0.01752 -0.01801,0.03172 -0.01636,0.03486zm-0.01803,-0.07285c0.01471,-0.01734 0.01471,-0.02048 0.00312,-0.02527c-0.01306,-0.00627 -0.02279,0.00794 -0.02279,0.0332c-0.00167,0.019 -0.00167,0.019 0.01966,-0.00793zm-0.02629,-0.18667c0.00165,0.01273 0.00496,0.01107 0.01471,-0.01255c0.01158,-0.02526 0.01158,-0.02859 0.00165,-0.02859c-0.00643,0 -0.01306,0.00479 -0.01471,0.01273c-0.0033,0.00627 -0.0033,0.02066 -0.00165,0.02841zm-0.0081,-0.12967c0,0.00645 0.00312,0.02213 0.00645,0.0332c0.00496,0.02214 0.00496,0.02214 0.00993,0.00313c0.00643,-0.01899 0,-0.0474 -0.00993,-0.0474c-0.00479,0 -0.00645,0.00479 -0.00645,0.01107zm-0.11474,0.05219c-0.0081,0.01107 -0.0081,0.02214 -0.00167,0.05534c0.00332,0.0238 0.0116,0.04759 0.01638,0.0522c0.00828,0.00793 0.00993,0 0.01158,-0.04906c0,-0.05995 -0.00828,-0.07895 -0.02629,-0.05848zm0.01471,0.16768c0.00165,0.00313 0.00496,-0.00313 0.0033,-0.01255c0,-0.00959 -0.00165,-0.01107 -0.00496,-0.00479c-0.00147,0.00627 -0.00147,0.0142 0.00165,0.01734zm0.05903,-0.14867c-0.00165,0.00313 -0.00165,0.02527 0.0033,0.04906c0.00497,0.04114 0.00645,0.0428 0.0081,0.01273c0.00165,-0.04907 -0.00165,-0.07286 -0.0114,-0.06179zm-0.05572,0.4462c0.00993,-0.019 0.02629,-0.05073 0.03769,-0.06973c0.01306,-0.02047 0.02133,-0.0474 0.02464,-0.07433c0.00479,-0.04261 0.00479,-0.04261 0.00479,-0.04261c-0.01968,0.02362 -0.01968,0.02362 -0.01968,0.02362c-0.00975,0.01273 -0.01636,0.02693 -0.01636,0.03172c0,0.01255 -0.03109,0.09168 -0.04084,0.10588c-0.00496,0.00792 -0.01324,0.02545 -0.01471,0.038c-0.00828,0.03633 0.00645,0.03006 0.02446,-0.01254zm-0.11623,0.16288c0.00497,0.03154 0.00497,0.03154 0.02133,-0.03634c0.00975,-0.03652 0.02446,-0.09499 0.03439,-0.13133c0.01306,-0.04593 0.01803,-0.08392 0.01803,-0.1376c0,-0.06972 -0.00167,-0.0712 -0.01473,-0.06326c-0.0296,0.02047 -0.04597,0.07747 -0.05258,0.18814c-0.00312,0.057 -0.00645,0.114 -0.00975,0.12654c-0.00165,0.01273 0,0.03652 0.0033,0.05386zm0.00332,-0.40489c0.00643,0.01568 0.01306,0.02841 0.01306,0.02841c0.00165,0 0.00973,-0.00959 0.01636,-0.02214c0.00828,-0.01106 0.02133,-0.02379 0.02629,-0.0284c0.0195,-0.01439 0.02446,-0.05866 0.0081,-0.08872c-0.01306,-0.02693 -0.0491,-0.057 -0.05573,-0.04741c-0.0033,0.00313 -0.00808,0.03321 -0.0114,0.06806c-0.00661,0.0522 -0.00661,0.06807 0.00332,0.0902zm-0.00993,-0.36227c0.0033,0.00314 0.00661,0.00148 0.00661,-0.00331c0,-0.00628 -0.0033,-0.01255 -0.00661,-0.01568c-0.00497,-0.00332 -0.0081,-0.00166 -0.0081,0.00461c0,0.00479 0.00312,0.01107 0.0081,0.01438zm-0.53055,0.42536c0.02281,0.00167 0.02281,0.00167 0.02281,0.00167c0.02299,0 0.04597,-0.02048 0.04597,-0.038c0,-0.01107 -0.00165,-0.01107 -0.06878,0.03633zm0.00975,-0.04427c0,0.0048 0.0033,0.00959 0.00828,0.00959c0.00808,0 0.03107,-0.02841 0.02611,-0.0332c-0.00497,-0.00646 -0.03439,0.0142 -0.03439,0.02361zm0.01803,-0.10901c0.02464,0.03155 0.03604,0.03468 0.0491,0.0142c0.01324,-0.01899 0.00165,-0.03172 -0.03771,-0.03633c-0.03272,-0.0048 -0.03272,-0.0048 -0.01139,0.02213zm-0.01803,-0.08872c0,0.00331 0.01158,0.01106 0.02464,0.01752c0.0605,0.03006 0.07209,0.03006 0.07043,0.00148c0,-0.01734 -0.02464,-0.05534 -0.03439,-0.05534c-0.01158,0 -0.06068,0.03006 -0.06068,0.03634zm0.08846,0.22466c0.01801,0 0.01966,-0.00479 0.00496,-0.01254c-0.00663,-0.00167 -0.01306,0 -0.01471,0.00461c-0.00332,0.00479 0.00165,0.00793 0.00975,0.00793zm0.01306,-0.37168c-0.0114,-0.00794 -0.02613,-0.01107 -0.03274,-0.00794c-0.0114,0.00628 -0.00975,0.00794 0.00661,0.01273c0.0081,0.00314 0.02466,0.00628 0.03274,0.00776c0.00975,0 0.00975,-0.00314 -0.00661,-0.01255zm-0.00147,0.05699c0.00973,0 0.0114,-0.00166 0.00478,-0.00645c-0.00478,-0.00148 -0.0114,-0.00148 -0.01471,0.00166c-0.00165,0.00313 0.0033,0.00627 0.00993,0.00479zm0.00973,0.03634c-0.02299,0 -0.02299,0.00148 -0.00973,0.0142c0.01636,0.0142 0.02114,0.01586 0.02776,0.00627c0.0114,-0.01254 0.0033,-0.02047 -0.01803,-0.02047zm0.03274,-0.17874c-0.00663,-0.00793 -0.00828,0.00627 -0.00496,0.02361c0.00165,0.01107 0.00826,0.02066 0.01158,0.02066c0.00643,0 0.00165,-0.03486 -0.00663,-0.04427zm0.0524,0.2088c-0.0033,0.00148 0.00497,0.01107 0.01473,0.019c0.00993,0.00793 0.01801,0.01106 0.01801,0.00627c0,-0.01107 -0.02776,-0.03173 -0.03274,-0.02527zm-0.041,0.01107c-0.01471,0.01107 -0.00643,0.03948 0.01489,0.04427c0.0114,0.00313 0.02943,0.01586 0.04084,0.02841c0.00993,0.01273 0.01801,0.01753 0.01801,0.01273c0,-0.01586 -0.06546,-0.09186 -0.07374,-0.0854zm0.06713,0.13134c-0.00975,-0.02546 -0.02115,-0.038 -0.04249,-0.04593c-0.01636,-0.00627 -0.03274,-0.00959 -0.03769,-0.00792c-0.00497,0.00166 0.01471,0.02213 0.04267,0.04592c0.0524,0.04113 0.0524,0.04113 0.03751,0.00794zm0.08697,-0.24367c-0.0033,0 -0.00663,0.00627 -0.00663,0.01254c0,0.00793 0.00332,0.01273 0.00663,0.01273c0.00478,0 0.0081,-0.00479 0.0081,-0.01273c0,-0.00627 -0.00332,-0.01254 -0.0081,-0.01254zm-0.01489,0.12967c0,0.01107 0.02794,0.00313 0.03935,-0.01107c0.01636,-0.02379 0.01471,-0.03006 -0.00663,-0.03006c-0.01471,0 -0.03272,0.02214 -0.03272,0.04113zm0.04763,-0.34161c-0.00497,0.02047 -0.00828,0.03781 -0.00663,0.03948c0.00497,0.00627 0.01803,-0.04113 0.01803,-0.06014c0,-0.00793 -0.00497,0.00167 -0.0114,0.02066zm0.08514,0.31947c-0.00828,0 -0.01471,0.00314 -0.01471,0.00941c0,0.00479 0.00478,0.00794 0.00973,0.00794c0.00663,0 0.01306,-0.00314 0.01473,-0.00794c0.0033,-0.00627 -0.00167,-0.00941 -0.00975,-0.00941zm-0.01968,0.29734c0.00975,0.0286 0.02446,0.05534 0.03274,0.06179c0.00828,0.00479 0.02464,0.02693 0.03439,0.04907c0.00975,0.02213 0.01968,0.03947 0.02133,0.03947c0.00808,0 -0.00828,-0.14553 -0.01968,-0.18981c-0.00993,-0.03799 -0.01306,-0.07285 -0.0114,-0.12819c0.00147,-0.04113 0,-0.07748 -0.0033,-0.08061c-0.00165,-0.00313 -0.01306,-0.00313 -0.02299,0c-0.01803,0.00627 -0.01968,0.01107 -0.01968,0.04593c0,0.02674 -0.0033,0.04113 -0.0114,0.0474c-0.02299,0.0142 -0.02133,0.09481 0,0.15494zm-0.04745,-0.21193c-0.0033,-0.0238 -0.00661,-0.02693 -0.02464,-0.02693c-0.02133,0 -0.02133,0.00166 -0.01968,0.03486c0,0.02048 0.00332,0.04428 0.00497,0.05534c0.00165,0.01107 0.0081,0.02214 0.01471,0.0238c0.01306,0.00794 0.02776,-0.0474 0.02464,-0.08706zm-0.02464,0.15973c-0.01471,-0.019 -0.02464,-0.03947 -0.02611,-0.04427c0,-0.00627 -0.00828,-0.02213 -0.01801,-0.03633c-0.00993,-0.0142 -0.02133,-0.03173 -0.02631,-0.038c-0.01636,-0.02214 -0.01306,-0.00313 0.00497,0.04593c0.0114,0.03321 0.03107,0.06327 0.05405,0.08854c0.04249,0.04279 0.04745,0.03486 0.0114,-0.01587zm-0.02611,0.07765c0.01783,0 0.01636,-0.00166 -0.00828,-0.02693c-0.01636,-0.01586 -0.02776,-0.0332 -0.02776,-0.04113c0,-0.00627 -0.02133,-0.02859 -0.04597,-0.04906c-0.02446,-0.02066 -0.04745,-0.04113 -0.05075,-0.04741c-0.00332,-0.00793 -0.00497,-0.00793 -0.00497,0.00148c0,0.00959 -0.00808,0.01107 -0.03439,0.00627c-0.01801,-0.00313 -0.03272,-0.00313 -0.03272,-0.00147c0,0.00313 0.00661,0.02213 0.01324,0.04113c0.0114,0.03154 0.01636,0.038 0.0524,0.05054c0.02281,0.00793 0.05885,0.02693 0.08184,0.04113c0.02133,0.01439 0.04745,0.02545 0.05738,0.02545zm-0.25562,0.05368c0.00663,0 0.01638,-0.00313 0.02299,-0.00793c0.0114,-0.01106 0.00167,-0.01106 -0.01966,0c-0.00975,0.0048 -0.0114,0.00628 -0.00332,0.00793zm-0.01801,-0.03948c0.01636,-0.00645 0.06878,-0.01273 0.11641,-0.01273c0.08992,-0.00148 0.10795,-0.00627 0.07191,-0.01586c-0.0114,-0.00313 -0.03751,-0.01107 -0.05885,-0.019c-0.03769,-0.0142 -0.11475,-0.00941 -0.12284,0.00645c-0.00167,0.00314 -0.00993,0.0048 -0.01803,0.00314c-0.01636,-0.0048 -0.03274,0.00793 -0.03769,0.0332c-0.00663,0.02047 0.00496,0.02214 0.0491,0.00479zm-0.13094,0.03634c0.0033,0.01273 0.01968,0.0142 0.03274,0.00313c0.00808,-0.00627 0.00808,-0.0094 0,-0.01899c-0.00663,-0.00941 -0.0114,-0.00941 -0.02133,-0.00148c-0.00663,0.00461 -0.0114,0.01254 -0.0114,0.01734zm-0.0524,0.11067c0.00643,0 0.00973,0.00479 0.00643,0.0142c-0.00147,0.00646 -0.00643,0.01273 -0.00975,0.01273c-0.00496,0 -0.00808,-0.00627 -0.00808,-0.01273c0,-0.00775 0.00478,-0.0142 0.0114,-0.0142z" fill-opacity="null" stroke-opacity="null" stroke-width="1.5" stroke="#000000" fill="#000"/>
  <rect stroke="#000" id="svg_18" height="60.00035" width="9.33339" y="215.63551" x="409.66674" fill-opacity="null" stroke-opacity="null" stroke-width="1.5" fill="#000000"/>
  <rect id="svg_19" height="10.66673" width="105.33395" y="215.63552" x="312.33284" fill-opacity="null" stroke-opacity="null" stroke-width="1.5" stroke="#000" fill="#000000"/>
  <path id="svg_24" d="m-24.34532,270.3304c0,0 0.1466,0.03207 0.18141,0.14296c0,0 0.03115,0.04307 0.02199,0.06598c-0.00916,0.02291 -0.02382,0.03024 -0.02749,0.03299c0,0 0.01832,-0.02108 -0.04398,-0.05499c0,0 -0.03207,-0.0055 -0.03848,-0.011c-0.00641,-0.0055 -0.10079,-0.02383 -0.12094,0.02199c-0.02016,0.04582 -0.02474,0.1228 -0.02199,0.12647c0.00275,0.00367 0.0962,0.07331 0.10445,0.09347c0.00825,0.02016 0.05223,0.0614 0.07147,0.06048c0.01924,-0.00092 0.06505,-0.00092 0.07696,-0.0165c0.01191,-0.01558 0.04673,-0.01741 0.05497,0c0.00825,0.01741 0.0055,0.0165 0.0055,0.0165c0,0 0.02932,-0.00641 0.03848,0.0165c0.00916,0.02291 -0.01374,0.03299 -0.01649,0.03299c-0.00275,0 0.01741,-0.03482 -0.01099,-0.02749c0,0 -0.01649,0.00069 -0.01649,-0.0055c0,-0.00619 0.00962,0.0323 0,0.03299c0,0 -0.0323,-0.03574 -0.03848,-0.0165c0,0 -0.02061,0.00412 -0.02749,0.0055c-0.00687,0.00137 -0.0055,0.0055 -0.0055,0.0055c0,0 -0.01787,0.00687 -0.0055,0.02749c0,0 0,0.00756 -0.0055,0.011c-0.0055,0.00344 0.00344,0.01993 0.02749,0.0055c0,0 0.00618,-0.0055 0.0055,0c-0.00069,0.0055 -0.02474,0.03505 -0.05497,-0.0055c0,0 -0.01099,-0.03093 0.0055,-0.03849c0.01649,-0.00756 -0.0055,-0.02268 -0.02749,-0.011c0,0 -0.00137,0.02199 0.0055,0.02749c0.00687,0.0055 -0.01168,0.00069 -0.01649,-0.0055c-0.00481,-0.00619 -0.01099,0.01306 -0.01099,0.0165c0,0.00344 -0.00618,0.01512 -0.01099,0.011c-0.00481,-0.00412 -0.05016,-0.00894 -0.04948,-0.0055c0.00069,0.00344 -0.0213,0.01787 -0.02749,0.011c-0.00618,-0.00687 -0.04054,-0.04193 -0.04398,-0.03849c-0.00344,0.00344 0.02336,0.04193 0.03848,0.04949c0.01512,0.00756 0.07834,0.01237 0.09895,-0.0055c0,0 0.03161,-0.00619 0.03298,0c0,0 0.03573,0.01443 0.03298,0.02199c-0.00275,0.00756 -0.00275,0.00344 -0.0055,0c-0.00275,-0.00344 -0.02543,-0.01581 -0.02749,-0.011c-0.00206,0.00481 0,0.0055 0,0.0055c0,0 0.02886,0.00825 0.02749,0.011c0,0 0.03367,0.01375 0.02749,0.04399c0,0 -0.01031,0.00756 -0.01099,0c-0.00069,-0.00756 0.00412,-0.02818 -0.01649,-0.02749c0,0 -0.00344,0.011 -0.01649,0.0055c-0.01306,-0.0055 0.00756,-0.01718 -0.06047,-0.011c0,0 0.00275,0.01306 0.01099,0.0165c0.00825,0.00344 0.02199,0.00344 0.02199,0.0165c0,0 0.00893,0.011 0,0.02199c0,0 -0.0055,0.00344 -0.0055,0c0,-0.00344 0.0055,-0.01993 -0.02199,-0.02749c-0.02749,-0.00756 -0.02199,-0.0055 -0.02199,-0.0055c0,0 0.00481,0.03299 -0.0055,0.03299c-0.01031,0 0.00687,0.02062 0.02749,0.011c0,0 0.00206,-0.00825 0.0055,-0.0055c0.00344,0.00275 -0.01718,0.04261 -0.05497,-0.0055c0,0 -0.01237,-0.02543 0,-0.03299c0,0 0.00825,-0.02543 -0.03298,-0.0165c0,0 -0.01718,0.00275 -0.01649,0c0.00069,-0.00275 -0.00275,0.01306 0,0.0165c0.00275,0.00344 -0.0323,-0.00756 -0.03298,-0.011l-0.01099,0c0,0 0.00641,0.03207 0.01099,0.03299c0.00458,0.00092 -0.02107,-0.01558 -0.02749,-0.02749c0,0 0,0.02291 0.0055,0.02749c0.0055,0.00458 -0.02474,-0.02474 -0.02199,-0.02749c0,0 0.00092,0.02933 0.01099,0.04399c0.01008,0.01466 -0.02199,-0.01375 -0.02749,-0.02199c0,0 -0.0055,0.00367 0,0.011c0.0055,0.00733 -0.01832,-0.00733 -0.02199,-0.02749c0,0 -0.01558,-0.01283 -0.02199,-0.0165c0,0 0.00092,0.03116 0.0055,0.03299c0,0 -0.01283,-0.01008 -0.01649,-0.02199c0,0 -0.00733,0.011 -0.0055,0.0165c0,0 -0.02107,-0.02383 -0.02749,-0.04399c-0.00641,-0.02016 -0.0055,0.0055 -0.0055,0.0055c0,0 -0.01283,-0.00183 -0.02199,-0.03849c0,0 -0.05314,0.0559 -0.07147,0.06048c-0.01832,0.00458 0.02199,-0.02199 0.02199,-0.02199c0,0 -0.03024,0.00916 -0.03298,0.0165c0,0 0.00275,-0.01008 0.01649,-0.02199c0.01374,-0.01191 -0.01649,-0.0055 -0.01649,-0.0055c0,0 -0.00641,-0.00183 -0.0055,-0.06048c0,0 -0.04123,0.04399 -0.06597,0.04399c-0.02474,0 0.02291,-0.01833 0.02749,-0.03299c0.00458,-0.01466 -0.01008,-0.01008 -0.01649,-0.0055c-0.00641,0.00458 -0.05406,0.03207 -0.05497,0.03849c-0.00092,0.00641 -0.0055,-0.011 -0.0055,-0.011c0,0 -0.01099,0.0055 -0.02199,0.0055c-0.01099,0 0.03207,-0.02016 0.03848,-0.03299c0.00641,-0.01283 -0.05955,0.02291 -0.08246,0.03849c0,0 -0.01924,0.00641 -0.02199,0c-0.00275,-0.00641 0.03298,-0.03116 0.03298,-0.03299c0,-0.00183 0.01283,-0.01741 -0.01099,-0.0055c-0.02382,0.01191 -0.05497,0.00275 -0.07696,0.011c-0.02199,0.00825 -0.04581,0.03391 -0.07696,0.03299c-0.03115,-0.00092 -0.03114,0.03849 -0.08796,0.03849c-0.03298,0 -0.01924,0.01283 -0.03298,0.011c-0.01374,-0.00183 0.01649,-0.0165 0.01649,-0.0165c0,0 -0.03298,0.011 -0.03848,0.011c-0.0055,0 -0.03024,0.00092 0.02749,-0.02199c0,0 -0.04215,0 -0.02749,-0.0055c0.01466,-0.0055 0.05131,-0.0165 0.04948,-0.02199c-0.00183,-0.0055 -0.0394,-0.00458 -0.02749,-0.011c0.01191,-0.00641 0.07696,-0.03024 0.06047,-0.03299c-0.01649,-0.00275 -0.04031,-0.00367 -0.02749,-0.011c0.01283,-0.00733 0.17042,-0.02474 0.19241,-0.04399c0.02199,-0.01924 0.0788,-0.07515 0.09346,-0.07698c0.01466,-0.00183 0,-0.01558 -0.01099,-0.011c-0.01099,0.00458 -0.02107,-0.00275 -0.01649,-0.03299c0.00458,-0.03024 -0.04715,0.06632 -0.07696,0.03299c-0.01558,-0.01741 -0.00366,-0.03024 -0.02199,-0.02749c-0.01832,0.00275 -0.01741,-0.02016 -0.02199,-0.011c-0.00458,0.00916 -0.04306,0.06598 -0.06047,0.06048c-0.01741,-0.0055 -0.00458,-0.00916 -0.01649,-0.011c-0.01191,-0.00183 -0.02016,-0.0055 -0.02199,-0.0165c-0.00183,-0.011 -0.01283,0.00733 -0.01649,-0.011c-0.00366,-0.01833 -0.00641,-0.04124 -0.02199,-0.02199c-0.01558,0.01924 -0.02107,0.00641 -0.02199,0c-0.00092,-0.00641 -0.0339,0.00367 -0.03298,-0.0165c0.00092,-0.02016 -0.03207,0.00641 -0.02749,-0.0165c0.00458,-0.02291 -0.02786,-0.0031 -0.02199,-0.02199c0.01283,-0.04124 -0.04398,-0.00367 -0.03848,-0.02199c0.0055,-0.01833 -0.02657,-0.00367 -0.02199,-0.02199c0.00458,-0.01833 -0.03051,-0.01196 -0.02749,-0.02749c0.00641,-0.03299 -0.03298,-0.01008 -0.02749,-0.03849c0.0055,-0.02841 -0.02502,-0.00019 -0.02199,-0.02199c0.00458,-0.03299 -0.03927,-0.02101 -0.02749,-0.04399c0.01832,-0.03574 -0.01884,-0.02038 -0.01099,-0.03849c0.01191,-0.02749 -0.07653,0.00305 -0.05497,-0.04399c0.01008,-0.02199 -0.05986,-0.03664 -0.02749,-0.05498c0.05497,-0.03116 -0.08429,-0.01558 -0.01649,-0.06598c0.06322,-0.02933 0.06709,-0.03209 -0.01099,-0.02749c-0.03115,0.00183 -0.07788,-0.04124 -0.03298,-0.04399c0.0449,-0.00275 0.13652,-0.02474 0.03298,-0.03299c-0.10353,-0.00825 -0.1072,-0.04582 -0.06597,-0.04399c0.04123,0.00183 0.20249,0.00183 0.15942,-0.011c-0.04306,-0.01283 -0.24014,-0.04418 -0.16492,-0.07698c0.03573,-0.01558 0.28752,0.06726 0.2144,0.011c-0.01191,-0.00916 -0.12827,-0.04216 -0.17042,-0.08798c-0.04215,-0.04582 -0.0339,-0.05224 -0.01099,-0.04399c0.02291,0.00825 0.28861,0.12921 0.24738,0.08798c-0.00733,-0.00733 -0.15942,-0.07973 -0.18141,-0.14296c-0.02199,-0.06323 -0.00092,-0.04674 0.01649,-0.02749c0.01741,0.01924 0.26743,0.20302 0.22539,0.14296c-0.01283,-0.01833 -0.12461,-0.09164 -0.14843,-0.16496c-0.02382,-0.07331 -0.0055,-0.05315 0.01099,-0.03299c0.01649,0.02016 0.27125,0.29484 0.23089,0.19795c-0.00916,-0.02199 -0.08979,-0.09073 -0.09895,-0.15396c-0.00916,-0.06323 0.01466,-0.03941 0.02749,-0.0165c0.01283,0.02291 0.19333,0.30792 0.19791,0.25843c0,0 0.00092,0.00092 0.0055,0c0.00458,-0.00092 -0.00366,-0.02658 0.0055,-0.02199c0,0 0.00366,-0.02016 0.01099,-0.0165c0.00733,0.00367 0.01466,0.00092 0.01649,-0.02199c0.00183,-0.02291 0.05589,0.00367 0.07147,0.12097c0,0 0.01099,0.0119 0.01099,0.03849c0,0.01375 0.06597,0.08064 0.10445,0.07698c0.03848,-0.00367 0.09346,0.07698 0.10995,0.08248c0.01649,0.0055 0.05314,0.03849 0.10995,0.0055c0.05681,-0.03299 0.1127,-0.04399 0.06597,-0.04949c-0.04673,-0.0055 -0.03757,-0.02383 -0.01649,-0.02749c0.02107,-0.00367 0.1127,-0.0055 0.08246,-0.02199c-0.03024,-0.0165 -0.05635,-0.10463 -0.01649,-0.08248c0.01649,0.00916 0.07506,0.0906 0.06597,0.03299c-0.00275,-0.01741 -0.03848,-0.03849 -0.02749,-0.09897c0.01099,-0.06048 0.02624,-0.01236 0.02749,-0.0055c0.00183,0.01008 0.04628,0.13524 0.05497,0.07148c0.00275,-0.02016 -0.02016,-0.04674 -0.01099,-0.12097c0.00916,-0.07423 0.02199,0 0.02199,0c0,0 0.02614,0.07602 0.02199,0.11547c-0.00183,0.01741 0.02382,0.011 0.02199,-0.02199c-0.00183,-0.03299 -0.01558,-0.10539 -0.0055,-0.10447c0.01008,0.00092 0.04028,0.04908 0.03298,0.08798c-0.00275,0.01466 0.0394,0.02933 -0.0055,0.06048c-0.04489,0.03116 -0.09346,0.09347 -0.09346,0.09347c0,0 0.01086,0.04027 -0.04398,0.06048c-0.03482,0.01283 -0.0055,0.03849 -0.0055,0.03849z" fill-opacity="null" stroke-opacity="null" stroke-width="1.5" stroke="#000" fill="#000000"/>
  <rect stroke="#000" id="svg_35" height="60.00035" width="9.33339" y="128.30167" x="409.66674" fill-opacity="null" stroke-opacity="null" stroke-width="1.5" fill="#000000"/>
  <rect id="svg_36" height="10.66673" width="105.33395" y="178.30197" x="310.9995" fill-opacity="null" stroke-opacity="null" stroke-width="1.5" stroke="#000" fill="#000000"/>
 </g>
</svg>