<svg width="640" height="380" xmlns="http://www.w3.org/2000/svg">
 <!-- Created with Method Draw - http://github.com/duopixel/Method-Draw/ -->
 <g>
  <title>background</title>
  <rect fill="#e2dede" id="canvas_background" height="382" width="642" y="-1" x="-1"/>
  <g display="none" overflow="visible" y="0" x="0" height="100%" width="100%" id="canvasGrid">
   <rect fill="url(#gridpattern)" stroke-width="0" y="0" x="0" height="100%" width="100%"/>
  </g>
 </g>
 <g>
  <title>Layer 1</title>
  <path id="svg_4" d="m36.78894,198.93288c29.96714,0 58.14288,10.37072 79.30875,29.18433c21.21456,18.82221 32.87818,43.90129 32.87818,70.58976l46.19691,0c0,-77.52652 -71.06243,-140.58567 -158.39358,-140.58567l0,40.81159l0.00974,0zm0.05842,-72.36268c106.83218,0 193.72521,77.24251 193.72521,172.1798l46.17744,0c0,-117.44304 -107.62079,-212.99999 -239.91239,-212.99999l0,40.82019l0.00974,0zm63.86759,143.64955c0,15.62063 -14.32153,28.28926 -31.98248,28.28926s-31.98248,-12.66863 -31.98248,-28.28926c0,-15.60342 14.32153,-28.27205 31.98248,-28.27205s31.98248,12.66003 31.98248,28.27205z" stroke-width="1.5" stroke="#000" fill="#050000"/>
  <text stroke="#000" transform="matrix(1.3580453765327718,0,0,1.45045595672606,-89.21460561234102,-167.15982083825523) " xml:space="preserve" text-anchor="start" font-family="sans-serif" font-size="119" id="svg_6" y="297.12222" x="273.91681" fill-opacity="null" stroke-opacity="null" stroke-width="2" fill="#000000">RSS</text>
 </g>
</svg>